# xmcd
#
# Track frame offsets:
#	150
#	17215
#	46363
#	68260
#	87554
#	105189
#	123571
#	144535
#	161498
#	181991
#	213560
#	243566
#
# Disc length: 3612 seconds
#
# Revision: 2
# Processed by: cddbd v1.5.2PL0 Copyright (c) Steve Scherf et al.
# Submitted via: EZCDAudioConverter 1.3.4.1
#
DISCID=a10e1a0c
DTITLE=Swing Out Sister - It's Better To Travel 1/2
DYEAR=2012
DGENRE=
TTITLE0=Breakout
TTITLE1=Twilight World [Superb, Superb Mix]
TTITLE2=After Hours
TTITLE3=Blue Mood
TTITLE4=Surrender
TTITLE5=Fooled By A Smile
TTITLE6=Communion
TTITLE7=It's Not Enough
TTITLE8=Theme From It's Better To Travel
TTITLE9=Breakout [N.A.D. Mix]
TTITLE10=Surrender [Stuff Gun Mix]
TTITLE11=Twilight World [Gas Distress Mix]
EXTD=
EXTT0=
EXTT1=
EXTT2=
EXTT3=
EXTT4=
EXTT5=
EXTT6=
EXTT7=
EXTT8=
EXTT9=
EXTT10=
EXTT11=
PLAYORDER=
